<svg viewBox="-163.2746955345061 -186.98856888727295 326.5493910690122 286.98856888727295" xmlns="http://www.w3.org/2000/svg" xmlns:xlink="http://www.w3.org/1999/xlink" version="1.1" class="jsx-2263963463 artboard-inner" style="width: 219.605px; height: 193px; max-height: 100%;" stroke="none" fill="#000000" stroke-width="1px"><g transform="translate(-172.34100135318 97.97023004059541) scale(1.879416629078334)" fill="#232323" stroke="none" stroke-width="1px"><g id="line1" stroke="none" fill="#232323" stroke-width="1px"><path d="M27.576-35.784C26.856-36.000 25.776-36.144 24.696-36.144C21.816-36.144 17.280-34.992 15.408-30.960L15.408-35.784L4.824-35.784L4.824 0L15.768 0L15.768-15.624C15.768-22.752 19.728-25.344 24.120-25.344C25.200-25.344 26.352-25.272 27.576-24.984Z" stroke="none" fill="#232323" stroke-width="1px"></path><path d="M39.910-22.176C40.126-24.840 42.430-28.224 47.038-28.224C52.222-28.224 54.094-24.912 54.238-22.176ZM55.030-12.888C54.022-10.080 51.790-8.208 47.830-8.208C43.582-8.208 39.910-11.088 39.694-15.120L64.606-15.120C64.678-15.336 64.822-16.992 64.822-18.504C64.822-30.024 57.982-36.864 46.894-36.864C37.606-36.864 29.038-29.520 29.038-18.000C29.038-5.976 37.822 1.080 47.686 1.080C56.758 1.080 62.446-4.104 64.174-10.296Z" stroke="none" fill="#232323" stroke-width="1px"></path><path d="M67.507-9.864C67.507-4.176 72.043 1.008 79.891 1.008C84.643 1.008 88.099-1.008 89.971-4.032C89.971-1.584 90.259-0.288 90.331 0L100.195 0C100.123-0.360 99.763-2.736 99.763-5.544L99.763-23.040C99.763-30.384 95.515-36.864 83.923-36.864C73.411-36.864 68.659-30.096 68.227-24.984L77.731-23.040C77.947-25.704 80.035-28.296 83.851-28.296C87.307-28.296 89.107-26.496 89.107-24.408C89.107-23.184 88.459-22.248 86.515-21.960L78.091-20.664C72.187-19.800 67.507-16.200 67.507-9.864ZM82.555-6.912C79.531-6.912 78.307-8.712 78.307-10.584C78.307-13.104 80.035-14.184 82.339-14.544L89.107-15.624L89.107-14.040C89.107-8.496 85.795-6.912 82.555-6.912Z" stroke="none" fill="#232323" stroke-width="1px"></path><path d="M123.257-26.784C127.505-26.784 129.665-24.192 130.457-21.456L140.249-24.408C138.665-30.816 132.905-36.864 123.041-36.864C112.529-36.864 104.177-29.016 104.177-17.856C104.177-6.768 112.745 1.080 123.401 1.080C132.977 1.080 138.881-5.112 140.465-11.376L130.817-14.328C130.025-11.664 127.649-9.000 123.401-9.000C118.865-9.000 115.049-12.168 115.049-17.856C115.049-23.616 118.721-26.784 123.257-26.784Z" stroke="none" fill="#232323" stroke-width="1px"></path><path d="M155.894-21.024C156.110-24.336 158.342-26.784 161.798-26.784C165.758-26.784 167.630-24.120 167.630-20.592L167.630 0L178.574 0L178.574-22.464C178.574-30.312 174.398-36.720 165.038-36.720C161.870-36.720 158.126-35.712 155.894-33.480L155.894-52.128L144.950-52.128L144.950 0L155.894 0Z" stroke="none" fill="#232323" stroke-width="1px"></path></g></g><g transform="translate(-104.25414193506201 -215.8914917400155) scale(2.1366838131036268)" id="logomark" stroke="none" fill="#000000" stroke-width="1px"><g fill="#232323" stroke="none" stroke-width="1px"><path d="M87 50.636c0-.016-.009-.03-.01-.046.001-.109.009-.217.009-.327 0-20.257-17.139-36.736-38.206-36.736-21.067 0-38.207 16.479-38.207 36.736 0 .084.006.167.006.251 0 .083-.007.165-.007.248 0 .026.013.049.016.074C10.923 70.828 27.926 87 48.793 87c19.782 0 36.099-14.532 38.016-33.077.126-1.083.191-2.18.191-3.287zM48.793 15.214c20.1 0 36.451 15.723 36.451 35.049 0 1.175-.062 2.335-.181 3.48-1.762 15.173-16.229 27.456-33.159 27.456-17.448 0-25.044-8.427-28.186-17.432 5.134 8.276 14.913 14.01 25.852 14.01 15.494 0 28.098-12.118 28.098-27.016l-.002-.01-.002-.097c0-.006.004-.012.004-.018 0-.115-.008-.228-.01-.342-.167-15.455-8.629-31.784-31.977-31.784-10.508 0-20.108 4.511-26.604 11.491 6.612-8.939 17.464-14.787 29.716-14.787zM75.91 50.762l.002.008c-.005 13.962-11.819 25.32-26.342 25.32-14.833 0-27.683-11.793-27.731-25.255 0-.065.161-.134.161-.199v-.004c0-13.965 11.656-25.323 26.178-25.323 14.805 0 27.713 11.747 27.811 25.176.001.092-.079.194-.079.277zm-63.561-.23c.141-16.466 15.345-30.333 33.333-30.333 16.148 0 23.691 8.021 27.202 15.96-5.34-7.477-14.55-12.539-24.828-12.539C32.563 23.62 20 35.739 20 50.637v.125c0 .017-.039.034-.039.051.04 12.065 4.267 32.074 31.964 32.074a36.59 36.59 0 0 0 22.637-7.849c-6.6 6.345-15.716 10.273-25.764 10.273-20.005.001-36.298-15.578-36.449-34.779z" stroke="none" fill="#232323" stroke-width="1px"></path></g></g></svg>